mtllib flat.mtl
g objMesh
v -49.999985 -0.000000 49.999996
v 49.999985 -0.000000 49.999996
v -49.999985 0.100001 49.999996
v 49.999985 0.100001 49.999996
v -49.999985 0.100001 -49.999996
v 49.999985 0.100001 -49.999996
v -49.999985 -0.000000 -49.999996
v 49.999985 -0.000000 -49.999996
vt 0.000000 0.000000
vt 1.000000 0.000000
vt 0.000000 1.000000
vt 1.000000 1.000000
vt 0.000000 0.000000
vt 1.000000 0.000000
vt 0.000000 1.000000
vt 1.000000 1.000000
vt 1.000000 1.000000
vt 0.000000 1.000000
vt 1.000000 0.000000
vt 0.000000 0.000000
vt 0.000000 0.000000
vt 1.000000 0.000000
vt 0.000000 1.000000
vt 1.000000 1.000000
vt 0.000000 0.000000
vt 1.000000 0.000000
vt 0.000000 1.000000
vt 1.000000 1.000000
vt 0.000000 0.000000
vt 1.000000 0.000000
vt 0.000000 1.000000
vt 1.000000 1.000000
vn 0.000000 0.000000 99.999992
vn 0.000000 0.000000 99.999992
vn 0.000000 0.000000 99.999992
vn 0.000000 0.000000 99.999992
vn 0.000000 0.100001 0.000000
vn 0.000000 0.100001 0.000000
vn 0.000000 0.100001 0.000000
vn 0.000000 0.100001 0.000000
vn 0.000000 0.000000 -99.999992
vn 0.000000 0.000000 -99.999992
vn 0.000000 0.000000 -99.999992
vn 0.000000 0.000000 -99.999992
vn 0.000000 -0.100001 0.000000
vn 0.000000 -0.100001 0.000000
vn 0.000000 -0.100001 0.000000
vn 0.000000 -0.100001 0.000000
vn 99.999969 0.000000 0.000000
vn 99.999969 0.000000 0.000000
vn 99.999969 0.000000 0.000000
vn 99.999969 0.000000 0.000000
vn -99.999969 0.000000 0.000000
vn -99.999969 0.000000 0.000000
vn -99.999969 0.000000 0.000000
vn -99.999969 0.000000 0.000000
usemtl __PS_3D_Default
f 1/1/1 2/2/2 3/3/3
f 3/3/3 2/2/2 4/4/4
f 3/5/5 4/6/6 5/7/7
f 5/7/7 4/6/6 6/8/8
f 5/9/9 6/10/10 7/11/11
f 7/11/11 6/10/10 8/12/12
f 7/13/13 8/14/14 1/15/15
f 1/15/15 8/14/14 2/16/16
f 2/17/17 8/18/18 4/19/19
f 4/19/19 8/18/18 6/20/20
f 7/21/21 1/22/22 5/23/23
f 5/23/23 1/22/22 3/24/24
